<?xml version="1.0" standalone="no"?><!DOCTYPE svg PUBLIC "-//W3C//DTD SVG 1.1//EN" "http://www.w3.org/Graphics/SVG/1.1/DTD/svg11.dtd"><svg t="1618848456404" class="icon" viewBox="0 0 1024 1024" version="1.1" xmlns="http://www.w3.org/2000/svg" p-id="3069" xmlns:xlink="http://www.w3.org/1999/xlink" width="200" height="200"><defs><style type="text/css"></style></defs><path d="M194.56 348.16A174.08 174.08 0 1 1 20.48 522.24 174.08 174.08 0 0 1 194.56 348.16z m655.36 0a174.08 174.08 0 1 1-174.08 174.08 174.08 174.08 0 0 1 174.08-174.08z" fill="#59493F" p-id="3070"></path><path d="M880.64 593.92m-81.92 0a81.92 81.92 0 1 0 163.84 0 81.92 81.92 0 1 0-163.84 0Z" fill="#F1D3B5" p-id="3071"></path><path d="M184.32 593.92m-81.92 0a81.92 81.92 0 1 0 163.84 0 81.92 81.92 0 1 0-163.84 0Z" fill="#F1D3B5" p-id="3072"></path><path d="M532.48 512m-348.16 0a348.16 348.16 0 1 0 696.32 0 348.16 348.16 0 1 0-696.32 0Z" fill="#FBEAD9" p-id="3073"></path><path d="M532.48 163.84c198.10304 0 359.3216 149.93408 368.4352 337.92C626.50368 573.44 491.97056 249.07776 491.97056 249.07776 451.7888 452.46464 267.0592 494.26432 164.06528 501.49376 173.3632 313.56928 334.49984 163.84 532.48 163.84z" fill="#59493F" p-id="3074"></path><path d="M358.4 512a51.2 51.2 0 1 1-51.2 51.2 51.2 51.2 0 0 1 51.2-51.2z m348.16 0a51.2 51.2 0 1 1-51.2 51.2 51.2 51.2 0 0 1 51.2-51.2z" fill="#59493F" p-id="3075"></path><path d="M532.48 737.28a81.92 81.92 0 0 1-81.92-81.92h163.84a81.92 81.92 0 0 1-81.92 81.92z" fill="#E60012" p-id="3076"></path><path d="M829.44 307.2s-140.5952-68.8128-133.12 45.19936 133.12 22.528 133.12 22.528 124.23168 81.5104 133.12-22.528S829.44 307.2 829.44 307.2z" fill="#E60012" p-id="3077"></path><path d="M798.72 286.72m30.72 0l20.48 0q30.72 0 30.72 30.72l0 61.44q0 30.72-30.72 30.72l-20.48 0q-30.72 0-30.72-30.72l0-61.44q0-30.72 30.72-30.72Z" fill="#BA000E" p-id="3078"></path></svg>